<svg width="227" height="135" viewBox="0 0 227 135" fill="none" xmlns="http://www.w3.org/2000/svg">
<path d="M128.055 10.0771L124.435 24.3032C129.563 14.2264 137.859 6.66874 147.361 0.000244141C140.423 7.85425 134.088 15.7083 130.317 23.7105C136.803 14.6709 145.551 9.78071 155.355 6.37237C142.233 17.7829 131.826 30.2308 123.983 42.5304L117.648 39.863C118.704 29.9344 122.474 19.8575 128.055 10.0771Z" fill="#149767"/>
<path d="M123.228 41.9377L127.602 44.1606C127.15 46.9762 127.753 53.2001 130.619 54.682C143.289 62.3878 155.054 70.6864 159.729 79.1331C176.321 108.623 148.115 136.038 123.53 133.37C136.803 123.738 140.725 103.881 135.747 82.0969C133.787 73.6501 130.619 65.9443 125.038 57.2012C122.625 53.2001 123.53 47.8653 123.228 41.9377Z" fill="#802CB5"/>
<path d="M118.402 56.0156C117.497 60.6095 116.441 68.908 112.369 72.02C110.71 73.2055 108.9 74.391 107.09 75.5765C99.699 80.4668 92.4591 85.0606 89.1408 96.7675C88.3867 99.2868 88.99 101.954 89.5933 104.473C91.4033 111.735 96.5315 119.44 100.604 124.034C100.604 124.182 101.358 124.775 101.358 124.923C104.676 128.776 105.732 129.962 118.402 132.777L118.1 134.111C110.408 132.185 104.224 130.258 100.151 125.813C100.151 125.664 99.3973 125.072 99.3973 125.072C95.174 120.33 89.895 112.327 88.085 104.77C87.3309 101.806 86.7276 99.4349 87.6325 96.323C91.1016 84.1715 98.6431 79.2813 106.185 74.2428C107.844 73.2055 109.955 72.1682 111.615 70.8345C115.084 68.6117 116.743 61.6468 118.402 56.0156Z" fill="#802CB5"/>
<path d="M121.72 75.2803C121.871 80.4669 121.268 83.1343 122.625 86.839C123.379 89.0618 126.245 92.0256 126.999 94.9894C128.055 98.8423 129.262 103.14 129.262 105.807C129.262 108.771 129.111 114.402 127.753 120.33C126.698 125.22 124.435 129.517 120.514 131.888C116.441 131.147 111.765 129.666 109.05 127.295C103.621 122.701 98.9448 114.995 98.3414 108.326C97.8889 102.843 103.017 94.693 110.257 90.6919C116.29 87.1354 117.799 83.2825 119.156 76.7622C117.346 82.3933 115.536 86.9872 109.654 90.0992C101.056 94.5448 96.6823 101.806 97.1348 108.919C97.7381 117.959 101.358 124.034 108.598 128.925C111.615 130.999 117.346 133.222 120.966 133.815V133.37C123.681 132.926 127.15 128.48 128.96 122.701C130.468 117.366 131.072 110.697 130.921 106.4C130.77 103.881 129.714 98.5459 127.603 93.6557C126.547 90.9883 124.737 88.3209 123.681 86.3944C122.323 84.1716 122.323 80.0223 121.72 75.2803Z" fill="#802CB5"/>
<path d="M120.815 95.582C120.966 99.1386 122.323 103.584 122.927 108.178C123.379 111.586 123.228 114.995 123.078 117.959C122.927 121.367 121.871 127.591 120.212 130.703C118.704 129.962 118.1 129.221 117.044 128.035C115.838 126.405 114.933 124.627 114.179 122.701C113.575 121.219 112.821 119.44 112.52 117.514C112.067 114.55 112.218 109.808 115.687 105.066C118.402 101.213 119.005 100.917 119.91 96.6193C118.704 100.472 117.799 100.917 114.933 104.177C111.765 107.734 111.313 113.068 111.313 117.366C111.313 119.144 112.067 121.219 112.821 122.997C113.575 124.923 114.329 126.998 115.385 128.48C117.044 130.851 119.156 132.333 120.212 132.481V132.333C122.173 130.11 123.379 128.035 123.832 125.813C124.284 123.145 124.435 120.626 124.737 117.514C125.038 114.847 124.888 111.438 124.133 107.882C123.228 103.436 121.569 98.8422 120.815 95.582Z" fill="#802CB5"/>
<path d="M121.419 51.8665C121.569 57.0531 121.871 66.6853 123.379 70.5382C123.832 71.8719 127.603 77.5031 130.167 84.468C131.977 89.21 132.429 93.6557 132.731 94.9894C133.938 100.621 132.429 110.253 130.468 119.292C129.413 124.183 125.943 130.258 122.022 132.629L121.268 133.963C123.53 133.815 128.96 128.628 130.921 121.96C134.239 110.846 135.446 105.659 133.938 93.2111C133.787 92.0256 133.183 87.8763 131.223 83.5789C128.357 76.9104 124.284 70.5382 123.832 69.2045C122.776 67.1299 121.569 57.9422 121.419 51.8665Z" fill="#802CB5"/>
<path d="M123.229 42.3823C122.927 47.7171 122.927 51.8664 123.832 55.8675C124.888 60.165 130.619 66.3889 133.033 73.502C137.557 87.1353 136.351 104.918 133.183 118.7C131.977 123.59 126.245 130.703 120.363 132.926L124.586 133.963C126.849 133.815 132.882 128.332 135.295 122.108C139.066 112.179 139.82 100.472 138.312 88.0245C138.161 86.839 136.2 76.1694 134.239 71.7237C131.524 65.0552 127.15 60.3132 125.642 56.1639C124.435 53.0519 123.983 44.7533 124.737 43.1233L123.229 42.3823Z" fill="#802CB5"/>
<path d="M5.73156 13.0405H87.3309C90.3475 13.0405 93.0625 15.5597 93.0625 18.6717V42.3819C93.0625 45.4939 90.3475 48.0131 87.3309 48.0131H70.5887C66.8179 48.0131 65.1588 50.0877 65.1588 52.4588V129.961C65.1588 132.629 63.0472 134.555 60.4831 134.555H32.7302C30.1661 134.555 28.2053 132.629 28.2053 129.961V51.7178C28.2053 49.3468 25.9429 47.8649 24.2837 47.8649H5.73156C2.56412 47.8649 0 45.3457 0 42.2337V18.5235C0 15.5597 2.56412 13.0405 5.73156 13.0405Z" fill="#802CB5"/>
<path d="M215.084 44.4565H222.324C225.039 44.4565 227.151 46.5312 227.151 49.0504V74.3907C227.151 77.6508 227.302 78.9845 223.229 78.9845C215.235 78.9845 211.615 83.1338 211.615 87.7277V130.554C211.615 132.481 209.655 134.259 207.392 134.259H181.449C179.187 134.259 177.226 132.629 177.226 130.554V81.8001C177.226 80.911 177.226 79.7255 177.377 78.9845C178.734 60.9055 193.214 46.5312 211.464 44.6047C211.917 44.6047 214.029 44.4565 215.084 44.4565Z" fill="#802CB5"/>
</svg>
